<?xml version="1.0" encoding="utf-8" standalone="no"?>
<!DOCTYPE svg PUBLIC "-//W3C//DTD SVG 1.1//EN"
  "http://www.w3.org/Graphics/SVG/1.1/DTD/svg11.dtd">
<svg height="340.445805pt" version="1.1" viewBox="0 0 429.286248 340.445805" width="429.286248pt" xmlns="http://www.w3.org/2000/svg" xmlns:xlink="http://www.w3.org/1999/xlink">
 <metadata>
  <rdf:RDF xmlns:cc="http://creativecommons.org/ns#" xmlns:dc="http://purl.org/dc/elements/1.1/" xmlns:rdf="http://www.w3.org/1999/02/22-rdf-syntax-ns#">
   <cc:Work>
    <dc:type rdf:resource="http://purl.org/dc/dcmitype/StillImage"/>
    <dc:date>2022-07-02T21:45:08.140035</dc:date>
    <dc:format>image/svg+xml</dc:format>
    <dc:creator>
     <cc:Agent>
      <dc:title>Matplotlib v3.4.3, https://matplotlib.org/</dc:title>
     </cc:Agent>
    </dc:creator>
   </cc:Work>
  </rdf:RDF>
 </metadata>
 <defs>
  <style type="text/css">*{stroke-linecap:butt;stroke-linejoin:round;}</style>
 </defs>
 <g id="figure_1">
  <g id="patch_1">
   <path d="M 0 340.445805 
L 429.286248 340.445805 
L 429.286248 0 
L 0 0 
z
" style="fill:#ffffff;"/>
  </g>
  <g id="axes_1">
   <g id="patch_2">
    <path d="M 59.666286 273.312 
L 416.786286 273.312 
L 416.786286 7.2 
L 59.666286 7.2 
z
" style="fill:#f7fbfb;"/>
   </g>
   <g id="matplotlib.axis_1">
    <g id="xtick_1">
     <g id="line2d_1">
      <path clip-path="url(#p7c983b9b60)" d="M 59.666286 273.312 
L 59.666286 7.2 
" style="fill:none;stroke:#eef2f3;stroke-linecap:square;stroke-width:0.7;"/>
     </g>
     <g id="line2d_2">
      <defs>
       <path d="M 0 0 
L 0 3.5 
" id="m498a5d1106" style="stroke:#c8c8d3;stroke-width:0.8;"/>
      </defs>
      <g>
       <use style="fill:#c8c8d3;stroke:#c8c8d3;stroke-width:0.8;" x="59.666286" xlink:href="#m498a5d1106" y="273.312"/>
      </g>
     </g>
     <g id="text_1">
      <!-- 0 -->
      <g style="fill:#6e6e80;" transform="translate(57.016305 286.641498)scale(0.0833 -0.0833)">
       <defs>
        <path d="M 2034 4250 
Q 1547 4250 1301 3770 
Q 1056 3291 1056 2328 
Q 1056 1369 1301 889 
Q 1547 409 2034 409 
Q 2525 409 2770 889 
Q 3016 1369 3016 2328 
Q 3016 3291 2770 3770 
Q 2525 4250 2034 4250 
z
M 2034 4750 
Q 2819 4750 3233 4129 
Q 3647 3509 3647 2328 
Q 3647 1150 3233 529 
Q 2819 -91 2034 -91 
Q 1250 -91 836 529 
Q 422 1150 422 2328 
Q 422 3509 836 4129 
Q 1250 4750 2034 4750 
z
" id="DejaVuSans-30" transform="scale(0.015625)"/>
       </defs>
       <use xlink:href="#DejaVuSans-30"/>
      </g>
     </g>
    </g>
    <g id="xtick_2">
     <g id="line2d_3">
      <path clip-path="url(#p7c983b9b60)" d="M 148.946286 273.312 
L 148.946286 7.2 
" style="fill:none;stroke:#eef2f3;stroke-linecap:square;stroke-width:0.7;"/>
     </g>
     <g id="line2d_4">
      <g>
       <use style="fill:#c8c8d3;stroke:#c8c8d3;stroke-width:0.8;" x="148.946286" xlink:href="#m498a5d1106" y="273.312"/>
      </g>
     </g>
     <g id="text_2">
      <!-- 5 -->
      <g style="fill:#6e6e80;" transform="translate(146.296305 286.641498)scale(0.0833 -0.0833)">
       <defs>
        <path d="M 691 4666 
L 3169 4666 
L 3169 4134 
L 1269 4134 
L 1269 2991 
Q 1406 3038 1543 3061 
Q 1681 3084 1819 3084 
Q 2600 3084 3056 2656 
Q 3513 2228 3513 1497 
Q 3513 744 3044 326 
Q 2575 -91 1722 -91 
Q 1428 -91 1123 -41 
Q 819 9 494 109 
L 494 744 
Q 775 591 1075 516 
Q 1375 441 1709 441 
Q 2250 441 2565 725 
Q 2881 1009 2881 1497 
Q 2881 1984 2565 2268 
Q 2250 2553 1709 2553 
Q 1456 2553 1204 2497 
Q 953 2441 691 2322 
L 691 4666 
z
" id="DejaVuSans-35" transform="scale(0.015625)"/>
       </defs>
       <use xlink:href="#DejaVuSans-35"/>
      </g>
     </g>
    </g>
    <g id="xtick_3">
     <g id="line2d_5">
      <path clip-path="url(#p7c983b9b60)" d="M 238.226286 273.312 
L 238.226286 7.2 
" style="fill:none;stroke:#eef2f3;stroke-linecap:square;stroke-width:0.7;"/>
     </g>
     <g id="line2d_6">
      <g>
       <use style="fill:#c8c8d3;stroke:#c8c8d3;stroke-width:0.8;" x="238.226286" xlink:href="#m498a5d1106" y="273.312"/>
      </g>
     </g>
     <g id="text_3">
      <!-- 10 -->
      <g style="fill:#6e6e80;" transform="translate(232.926323 286.641498)scale(0.0833 -0.0833)">
       <defs>
        <path d="M 794 531 
L 1825 531 
L 1825 4091 
L 703 3866 
L 703 4441 
L 1819 4666 
L 2450 4666 
L 2450 531 
L 3481 531 
L 3481 0 
L 794 0 
L 794 531 
z
" id="DejaVuSans-31" transform="scale(0.015625)"/>
       </defs>
       <use xlink:href="#DejaVuSans-31"/>
       <use x="63.623047" xlink:href="#DejaVuSans-30"/>
      </g>
     </g>
    </g>
    <g id="xtick_4">
     <g id="line2d_7">
      <path clip-path="url(#p7c983b9b60)" d="M 327.506286 273.312 
L 327.506286 7.2 
" style="fill:none;stroke:#eef2f3;stroke-linecap:square;stroke-width:0.7;"/>
     </g>
     <g id="line2d_8">
      <g>
       <use style="fill:#c8c8d3;stroke:#c8c8d3;stroke-width:0.8;" x="327.506286" xlink:href="#m498a5d1106" y="273.312"/>
      </g>
     </g>
     <g id="text_4">
      <!-- 15 -->
      <g style="fill:#6e6e80;" transform="translate(322.206323 286.641498)scale(0.0833 -0.0833)">
       <use xlink:href="#DejaVuSans-31"/>
       <use x="63.623047" xlink:href="#DejaVuSans-35"/>
      </g>
     </g>
    </g>
    <g id="xtick_5">
     <g id="line2d_9">
      <path clip-path="url(#p7c983b9b60)" d="M 416.786286 273.312 
L 416.786286 7.2 
" style="fill:none;stroke:#eef2f3;stroke-linecap:square;stroke-width:0.7;"/>
     </g>
     <g id="line2d_10">
      <g>
       <use style="fill:#c8c8d3;stroke:#c8c8d3;stroke-width:0.8;" x="416.786286" xlink:href="#m498a5d1106" y="273.312"/>
      </g>
     </g>
     <g id="text_5">
      <!-- 20 -->
      <g style="fill:#6e6e80;" transform="translate(411.486323 286.641498)scale(0.0833 -0.0833)">
       <defs>
        <path d="M 1228 531 
L 3431 531 
L 3431 0 
L 469 0 
L 469 531 
Q 828 903 1448 1529 
Q 2069 2156 2228 2338 
Q 2531 2678 2651 2914 
Q 2772 3150 2772 3378 
Q 2772 3750 2511 3984 
Q 2250 4219 1831 4219 
Q 1534 4219 1204 4116 
Q 875 4013 500 3803 
L 500 4441 
Q 881 4594 1212 4672 
Q 1544 4750 1819 4750 
Q 2544 4750 2975 4387 
Q 3406 4025 3406 3419 
Q 3406 3131 3298 2873 
Q 3191 2616 2906 2266 
Q 2828 2175 2409 1742 
Q 1991 1309 1228 531 
z
" id="DejaVuSans-32" transform="scale(0.015625)"/>
       </defs>
       <use xlink:href="#DejaVuSans-32"/>
       <use x="63.623047" xlink:href="#DejaVuSans-30"/>
      </g>
     </g>
    </g>
    <g id="text_6">
     <!-- Iteration -->
     <g style="fill:#6e6e80;" transform="translate(212.775973 304.492003)scale(0.12 -0.12)">
      <defs>
       <path d="M 628 4666 
L 1259 4666 
L 1259 0 
L 628 0 
L 628 4666 
z
" id="DejaVuSans-49" transform="scale(0.015625)"/>
       <path d="M 1172 4494 
L 1172 3500 
L 2356 3500 
L 2356 3053 
L 1172 3053 
L 1172 1153 
Q 1172 725 1289 603 
Q 1406 481 1766 481 
L 2356 481 
L 2356 0 
L 1766 0 
Q 1100 0 847 248 
Q 594 497 594 1153 
L 594 3053 
L 172 3053 
L 172 3500 
L 594 3500 
L 594 4494 
L 1172 4494 
z
" id="DejaVuSans-74" transform="scale(0.015625)"/>
       <path d="M 3597 1894 
L 3597 1613 
L 953 1613 
Q 991 1019 1311 708 
Q 1631 397 2203 397 
Q 2534 397 2845 478 
Q 3156 559 3463 722 
L 3463 178 
Q 3153 47 2828 -22 
Q 2503 -91 2169 -91 
Q 1331 -91 842 396 
Q 353 884 353 1716 
Q 353 2575 817 3079 
Q 1281 3584 2069 3584 
Q 2775 3584 3186 3129 
Q 3597 2675 3597 1894 
z
M 3022 2063 
Q 3016 2534 2758 2815 
Q 2500 3097 2075 3097 
Q 1594 3097 1305 2825 
Q 1016 2553 972 2059 
L 3022 2063 
z
" id="DejaVuSans-65" transform="scale(0.015625)"/>
       <path d="M 2631 2963 
Q 2534 3019 2420 3045 
Q 2306 3072 2169 3072 
Q 1681 3072 1420 2755 
Q 1159 2438 1159 1844 
L 1159 0 
L 581 0 
L 581 3500 
L 1159 3500 
L 1159 2956 
Q 1341 3275 1631 3429 
Q 1922 3584 2338 3584 
Q 2397 3584 2469 3576 
Q 2541 3569 2628 3553 
L 2631 2963 
z
" id="DejaVuSans-72" transform="scale(0.015625)"/>
       <path d="M 2194 1759 
Q 1497 1759 1228 1600 
Q 959 1441 959 1056 
Q 959 750 1161 570 
Q 1363 391 1709 391 
Q 2188 391 2477 730 
Q 2766 1069 2766 1631 
L 2766 1759 
L 2194 1759 
z
M 3341 1997 
L 3341 0 
L 2766 0 
L 2766 531 
Q 2569 213 2275 61 
Q 1981 -91 1556 -91 
Q 1019 -91 701 211 
Q 384 513 384 1019 
Q 384 1609 779 1909 
Q 1175 2209 1959 2209 
L 2766 2209 
L 2766 2266 
Q 2766 2663 2505 2880 
Q 2244 3097 1772 3097 
Q 1472 3097 1187 3025 
Q 903 2953 641 2809 
L 641 3341 
Q 956 3463 1253 3523 
Q 1550 3584 1831 3584 
Q 2591 3584 2966 3190 
Q 3341 2797 3341 1997 
z
" id="DejaVuSans-61" transform="scale(0.015625)"/>
       <path d="M 603 3500 
L 1178 3500 
L 1178 0 
L 603 0 
L 603 3500 
z
M 603 4863 
L 1178 4863 
L 1178 4134 
L 603 4134 
L 603 4863 
z
" id="DejaVuSans-69" transform="scale(0.015625)"/>
       <path d="M 1959 3097 
Q 1497 3097 1228 2736 
Q 959 2375 959 1747 
Q 959 1119 1226 758 
Q 1494 397 1959 397 
Q 2419 397 2687 759 
Q 2956 1122 2956 1747 
Q 2956 2369 2687 2733 
Q 2419 3097 1959 3097 
z
M 1959 3584 
Q 2709 3584 3137 3096 
Q 3566 2609 3566 1747 
Q 3566 888 3137 398 
Q 2709 -91 1959 -91 
Q 1206 -91 779 398 
Q 353 888 353 1747 
Q 353 2609 779 3096 
Q 1206 3584 1959 3584 
z
" id="DejaVuSans-6f" transform="scale(0.015625)"/>
       <path d="M 3513 2113 
L 3513 0 
L 2938 0 
L 2938 2094 
Q 2938 2591 2744 2837 
Q 2550 3084 2163 3084 
Q 1697 3084 1428 2787 
Q 1159 2491 1159 1978 
L 1159 0 
L 581 0 
L 581 3500 
L 1159 3500 
L 1159 2956 
Q 1366 3272 1645 3428 
Q 1925 3584 2291 3584 
Q 2894 3584 3203 3211 
Q 3513 2838 3513 2113 
z
" id="DejaVuSans-6e" transform="scale(0.015625)"/>
      </defs>
      <use xlink:href="#DejaVuSans-49"/>
      <use x="29.492188" xlink:href="#DejaVuSans-74"/>
      <use x="68.701172" xlink:href="#DejaVuSans-65"/>
      <use x="130.224609" xlink:href="#DejaVuSans-72"/>
      <use x="171.337891" xlink:href="#DejaVuSans-61"/>
      <use x="232.617188" xlink:href="#DejaVuSans-74"/>
      <use x="271.826172" xlink:href="#DejaVuSans-69"/>
      <use x="299.609375" xlink:href="#DejaVuSans-6f"/>
      <use x="360.791016" xlink:href="#DejaVuSans-6e"/>
     </g>
    </g>
   </g>
   <g id="matplotlib.axis_2">
    <g id="ytick_1">
     <g id="line2d_11">
      <path clip-path="url(#p7c983b9b60)" d="M 59.666286 273.241902 
L 416.786286 273.241902 
" style="fill:none;stroke:#eef2f3;stroke-linecap:square;stroke-width:0.7;"/>
     </g>
     <g id="line2d_12">
      <defs>
       <path d="M 0 0 
L -3.5 0 
" id="m2b543ccc12" style="stroke:#c8c8d3;stroke-width:0.8;"/>
      </defs>
      <g>
       <use style="fill:#c8c8d3;stroke:#c8c8d3;stroke-width:0.8;" x="59.666286" xlink:href="#m2b543ccc12" y="273.241902"/>
      </g>
     </g>
     <g id="text_7">
      <!-- -1,000 -->
      <g style="fill:#6e6e80;" transform="translate(25.81375 276.406651)scale(0.0833 -0.0833)">
       <defs>
        <path d="M 313 2009 
L 1997 2009 
L 1997 1497 
L 313 1497 
L 313 2009 
z
" id="DejaVuSans-2d" transform="scale(0.015625)"/>
        <path d="M 750 794 
L 1409 794 
L 1409 256 
L 897 -744 
L 494 -744 
L 750 256 
L 750 794 
z
" id="DejaVuSans-2c" transform="scale(0.015625)"/>
       </defs>
       <use xlink:href="#DejaVuSans-2d"/>
       <use x="36.083984" xlink:href="#DejaVuSans-31"/>
       <use x="99.707031" xlink:href="#DejaVuSans-2c"/>
       <use x="131.494141" xlink:href="#DejaVuSans-30"/>
       <use x="195.117188" xlink:href="#DejaVuSans-30"/>
       <use x="258.740234" xlink:href="#DejaVuSans-30"/>
      </g>
     </g>
    </g>
    <g id="ytick_2">
     <g id="line2d_13">
      <path clip-path="url(#p7c983b9b60)" d="M 59.666286 236.354451 
L 416.786286 236.354451 
" style="fill:none;stroke:#eef2f3;stroke-linecap:square;stroke-width:0.7;"/>
     </g>
     <g id="line2d_14">
      <g>
       <use style="fill:#c8c8d3;stroke:#c8c8d3;stroke-width:0.8;" x="59.666286" xlink:href="#m2b543ccc12" y="236.354451"/>
      </g>
     </g>
     <g id="text_8">
      <!-- 0 -->
      <g style="fill:#6e6e80;" transform="translate(47.366323 239.5192)scale(0.0833 -0.0833)">
       <use xlink:href="#DejaVuSans-30"/>
      </g>
     </g>
    </g>
    <g id="ytick_3">
     <g id="line2d_15">
      <path clip-path="url(#p7c983b9b60)" d="M 59.666286 199.467 
L 416.786286 199.467 
" style="fill:none;stroke:#eef2f3;stroke-linecap:square;stroke-width:0.7;"/>
     </g>
     <g id="line2d_16">
      <g>
       <use style="fill:#c8c8d3;stroke:#c8c8d3;stroke-width:0.8;" x="59.666286" xlink:href="#m2b543ccc12" y="199.467"/>
      </g>
     </g>
     <g id="text_9">
      <!-- 1,000 -->
      <g style="fill:#6e6e80;" transform="translate(28.819058 202.631749)scale(0.0833 -0.0833)">
       <use xlink:href="#DejaVuSans-31"/>
       <use x="63.623047" xlink:href="#DejaVuSans-2c"/>
       <use x="95.410156" xlink:href="#DejaVuSans-30"/>
       <use x="159.033203" xlink:href="#DejaVuSans-30"/>
       <use x="222.65625" xlink:href="#DejaVuSans-30"/>
      </g>
     </g>
    </g>
    <g id="ytick_4">
     <g id="line2d_17">
      <path clip-path="url(#p7c983b9b60)" d="M 59.666286 162.579548 
L 416.786286 162.579548 
" style="fill:none;stroke:#eef2f3;stroke-linecap:square;stroke-width:0.7;"/>
     </g>
     <g id="line2d_18">
      <g>
       <use style="fill:#c8c8d3;stroke:#c8c8d3;stroke-width:0.8;" x="59.666286" xlink:href="#m2b543ccc12" y="162.579548"/>
      </g>
     </g>
     <g id="text_10">
      <!-- 2,000 -->
      <g style="fill:#6e6e80;" transform="translate(28.819058 165.744298)scale(0.0833 -0.0833)">
       <use xlink:href="#DejaVuSans-32"/>
       <use x="63.623047" xlink:href="#DejaVuSans-2c"/>
       <use x="95.410156" xlink:href="#DejaVuSans-30"/>
       <use x="159.033203" xlink:href="#DejaVuSans-30"/>
       <use x="222.65625" xlink:href="#DejaVuSans-30"/>
      </g>
     </g>
    </g>
    <g id="ytick_5">
     <g id="line2d_19">
      <path clip-path="url(#p7c983b9b60)" d="M 59.666286 125.692097 
L 416.786286 125.692097 
" style="fill:none;stroke:#eef2f3;stroke-linecap:square;stroke-width:0.7;"/>
     </g>
     <g id="line2d_20">
      <g>
       <use style="fill:#c8c8d3;stroke:#c8c8d3;stroke-width:0.8;" x="59.666286" xlink:href="#m2b543ccc12" y="125.692097"/>
      </g>
     </g>
     <g id="text_11">
      <!-- 3,000 -->
      <g style="fill:#6e6e80;" transform="translate(28.819058 128.856846)scale(0.0833 -0.0833)">
       <defs>
        <path d="M 2597 2516 
Q 3050 2419 3304 2112 
Q 3559 1806 3559 1356 
Q 3559 666 3084 287 
Q 2609 -91 1734 -91 
Q 1441 -91 1130 -33 
Q 819 25 488 141 
L 488 750 
Q 750 597 1062 519 
Q 1375 441 1716 441 
Q 2309 441 2620 675 
Q 2931 909 2931 1356 
Q 2931 1769 2642 2001 
Q 2353 2234 1838 2234 
L 1294 2234 
L 1294 2753 
L 1863 2753 
Q 2328 2753 2575 2939 
Q 2822 3125 2822 3475 
Q 2822 3834 2567 4026 
Q 2313 4219 1838 4219 
Q 1578 4219 1281 4162 
Q 984 4106 628 3988 
L 628 4550 
Q 988 4650 1302 4700 
Q 1616 4750 1894 4750 
Q 2613 4750 3031 4423 
Q 3450 4097 3450 3541 
Q 3450 3153 3228 2886 
Q 3006 2619 2597 2516 
z
" id="DejaVuSans-33" transform="scale(0.015625)"/>
       </defs>
       <use xlink:href="#DejaVuSans-33"/>
       <use x="63.623047" xlink:href="#DejaVuSans-2c"/>
       <use x="95.410156" xlink:href="#DejaVuSans-30"/>
       <use x="159.033203" xlink:href="#DejaVuSans-30"/>
       <use x="222.65625" xlink:href="#DejaVuSans-30"/>
      </g>
     </g>
    </g>
    <g id="ytick_6">
     <g id="line2d_21">
      <path clip-path="url(#p7c983b9b60)" d="M 59.666286 88.804646 
L 416.786286 88.804646 
" style="fill:none;stroke:#eef2f3;stroke-linecap:square;stroke-width:0.7;"/>
     </g>
     <g id="line2d_22">
      <g>
       <use style="fill:#c8c8d3;stroke:#c8c8d3;stroke-width:0.8;" x="59.666286" xlink:href="#m2b543ccc12" y="88.804646"/>
      </g>
     </g>
     <g id="text_12">
      <!-- 4,000 -->
      <g style="fill:#6e6e80;" transform="translate(28.819058 91.969395)scale(0.0833 -0.0833)">
       <defs>
        <path d="M 2419 4116 
L 825 1625 
L 2419 1625 
L 2419 4116 
z
M 2253 4666 
L 3047 4666 
L 3047 1625 
L 3713 1625 
L 3713 1100 
L 3047 1100 
L 3047 0 
L 2419 0 
L 2419 1100 
L 313 1100 
L 313 1709 
L 2253 4666 
z
" id="DejaVuSans-34" transform="scale(0.015625)"/>
       </defs>
       <use xlink:href="#DejaVuSans-34"/>
       <use x="63.623047" xlink:href="#DejaVuSans-2c"/>
       <use x="95.410156" xlink:href="#DejaVuSans-30"/>
       <use x="159.033203" xlink:href="#DejaVuSans-30"/>
       <use x="222.65625" xlink:href="#DejaVuSans-30"/>
      </g>
     </g>
    </g>
    <g id="ytick_7">
     <g id="line2d_23">
      <path clip-path="url(#p7c983b9b60)" d="M 59.666286 51.917195 
L 416.786286 51.917195 
" style="fill:none;stroke:#eef2f3;stroke-linecap:square;stroke-width:0.7;"/>
     </g>
     <g id="line2d_24">
      <g>
       <use style="fill:#c8c8d3;stroke:#c8c8d3;stroke-width:0.8;" x="59.666286" xlink:href="#m2b543ccc12" y="51.917195"/>
      </g>
     </g>
     <g id="text_13">
      <!-- 5,000 -->
      <g style="fill:#6e6e80;" transform="translate(28.819058 55.081944)scale(0.0833 -0.0833)">
       <use xlink:href="#DejaVuSans-35"/>
       <use x="63.623047" xlink:href="#DejaVuSans-2c"/>
       <use x="95.410156" xlink:href="#DejaVuSans-30"/>
       <use x="159.033203" xlink:href="#DejaVuSans-30"/>
       <use x="222.65625" xlink:href="#DejaVuSans-30"/>
      </g>
     </g>
    </g>
    <g id="ytick_8">
     <g id="line2d_25">
      <path clip-path="url(#p7c983b9b60)" d="M 59.666286 15.029743 
L 416.786286 15.029743 
" style="fill:none;stroke:#eef2f3;stroke-linecap:square;stroke-width:0.7;"/>
     </g>
     <g id="line2d_26">
      <g>
       <use style="fill:#c8c8d3;stroke:#c8c8d3;stroke-width:0.8;" x="59.666286" xlink:href="#m2b543ccc12" y="15.029743"/>
      </g>
     </g>
     <g id="text_14">
      <!-- 6,000 -->
      <g style="fill:#6e6e80;" transform="translate(28.819058 18.194492)scale(0.0833 -0.0833)">
       <defs>
        <path d="M 2113 2584 
Q 1688 2584 1439 2293 
Q 1191 2003 1191 1497 
Q 1191 994 1439 701 
Q 1688 409 2113 409 
Q 2538 409 2786 701 
Q 3034 994 3034 1497 
Q 3034 2003 2786 2293 
Q 2538 2584 2113 2584 
z
M 3366 4563 
L 3366 3988 
Q 3128 4100 2886 4159 
Q 2644 4219 2406 4219 
Q 1781 4219 1451 3797 
Q 1122 3375 1075 2522 
Q 1259 2794 1537 2939 
Q 1816 3084 2150 3084 
Q 2853 3084 3261 2657 
Q 3669 2231 3669 1497 
Q 3669 778 3244 343 
Q 2819 -91 2113 -91 
Q 1303 -91 875 529 
Q 447 1150 447 2328 
Q 447 3434 972 4092 
Q 1497 4750 2381 4750 
Q 2619 4750 2861 4703 
Q 3103 4656 3366 4563 
z
" id="DejaVuSans-36" transform="scale(0.015625)"/>
       </defs>
       <use xlink:href="#DejaVuSans-36"/>
       <use x="63.623047" xlink:href="#DejaVuSans-2c"/>
       <use x="95.410156" xlink:href="#DejaVuSans-30"/>
       <use x="159.033203" xlink:href="#DejaVuSans-30"/>
       <use x="222.65625" xlink:href="#DejaVuSans-30"/>
      </g>
     </g>
    </g>
    <g id="text_15">
     <!-- Mean Trajectory Reward -->
     <g style="fill:#6e6e80;" transform="translate(16.318125 212.385375)rotate(-90)scale(0.12 -0.12)">
      <defs>
       <path d="M 628 4666 
L 1569 4666 
L 2759 1491 
L 3956 4666 
L 4897 4666 
L 4897 0 
L 4281 0 
L 4281 4097 
L 3078 897 
L 2444 897 
L 1241 4097 
L 1241 0 
L 628 0 
L 628 4666 
z
" id="DejaVuSans-4d" transform="scale(0.015625)"/>
       <path id="DejaVuSans-20" transform="scale(0.015625)"/>
       <path d="M -19 4666 
L 3928 4666 
L 3928 4134 
L 2272 4134 
L 2272 0 
L 1638 0 
L 1638 4134 
L -19 4134 
L -19 4666 
z
" id="DejaVuSans-54" transform="scale(0.015625)"/>
       <path d="M 603 3500 
L 1178 3500 
L 1178 -63 
Q 1178 -731 923 -1031 
Q 669 -1331 103 -1331 
L -116 -1331 
L -116 -844 
L 38 -844 
Q 366 -844 484 -692 
Q 603 -541 603 -63 
L 603 3500 
z
M 603 4863 
L 1178 4863 
L 1178 4134 
L 603 4134 
L 603 4863 
z
" id="DejaVuSans-6a" transform="scale(0.015625)"/>
       <path d="M 3122 3366 
L 3122 2828 
Q 2878 2963 2633 3030 
Q 2388 3097 2138 3097 
Q 1578 3097 1268 2742 
Q 959 2388 959 1747 
Q 959 1106 1268 751 
Q 1578 397 2138 397 
Q 2388 397 2633 464 
Q 2878 531 3122 666 
L 3122 134 
Q 2881 22 2623 -34 
Q 2366 -91 2075 -91 
Q 1284 -91 818 406 
Q 353 903 353 1747 
Q 353 2603 823 3093 
Q 1294 3584 2113 3584 
Q 2378 3584 2631 3529 
Q 2884 3475 3122 3366 
z
" id="DejaVuSans-63" transform="scale(0.015625)"/>
       <path d="M 2059 -325 
Q 1816 -950 1584 -1140 
Q 1353 -1331 966 -1331 
L 506 -1331 
L 506 -850 
L 844 -850 
Q 1081 -850 1212 -737 
Q 1344 -625 1503 -206 
L 1606 56 
L 191 3500 
L 800 3500 
L 1894 763 
L 2988 3500 
L 3597 3500 
L 2059 -325 
z
" id="DejaVuSans-79" transform="scale(0.015625)"/>
       <path d="M 2841 2188 
Q 3044 2119 3236 1894 
Q 3428 1669 3622 1275 
L 4263 0 
L 3584 0 
L 2988 1197 
Q 2756 1666 2539 1819 
Q 2322 1972 1947 1972 
L 1259 1972 
L 1259 0 
L 628 0 
L 628 4666 
L 2053 4666 
Q 2853 4666 3247 4331 
Q 3641 3997 3641 3322 
Q 3641 2881 3436 2590 
Q 3231 2300 2841 2188 
z
M 1259 4147 
L 1259 2491 
L 2053 2491 
Q 2509 2491 2742 2702 
Q 2975 2913 2975 3322 
Q 2975 3731 2742 3939 
Q 2509 4147 2053 4147 
L 1259 4147 
z
" id="DejaVuSans-52" transform="scale(0.015625)"/>
       <path d="M 269 3500 
L 844 3500 
L 1563 769 
L 2278 3500 
L 2956 3500 
L 3675 769 
L 4391 3500 
L 4966 3500 
L 4050 0 
L 3372 0 
L 2619 2869 
L 1863 0 
L 1184 0 
L 269 3500 
z
" id="DejaVuSans-77" transform="scale(0.015625)"/>
       <path d="M 2906 2969 
L 2906 4863 
L 3481 4863 
L 3481 0 
L 2906 0 
L 2906 525 
Q 2725 213 2448 61 
Q 2172 -91 1784 -91 
Q 1150 -91 751 415 
Q 353 922 353 1747 
Q 353 2572 751 3078 
Q 1150 3584 1784 3584 
Q 2172 3584 2448 3432 
Q 2725 3281 2906 2969 
z
M 947 1747 
Q 947 1113 1208 752 
Q 1469 391 1925 391 
Q 2381 391 2643 752 
Q 2906 1113 2906 1747 
Q 2906 2381 2643 2742 
Q 2381 3103 1925 3103 
Q 1469 3103 1208 2742 
Q 947 2381 947 1747 
z
" id="DejaVuSans-64" transform="scale(0.015625)"/>
      </defs>
      <use xlink:href="#DejaVuSans-4d"/>
      <use x="86.279297" xlink:href="#DejaVuSans-65"/>
      <use x="147.802734" xlink:href="#DejaVuSans-61"/>
      <use x="209.082031" xlink:href="#DejaVuSans-6e"/>
      <use x="272.460938" xlink:href="#DejaVuSans-20"/>
      <use x="304.248047" xlink:href="#DejaVuSans-54"/>
      <use x="350.582031" xlink:href="#DejaVuSans-72"/>
      <use x="391.695312" xlink:href="#DejaVuSans-61"/>
      <use x="452.974609" xlink:href="#DejaVuSans-6a"/>
      <use x="480.757812" xlink:href="#DejaVuSans-65"/>
      <use x="542.28125" xlink:href="#DejaVuSans-63"/>
      <use x="597.261719" xlink:href="#DejaVuSans-74"/>
      <use x="636.470703" xlink:href="#DejaVuSans-6f"/>
      <use x="697.652344" xlink:href="#DejaVuSans-72"/>
      <use x="738.765625" xlink:href="#DejaVuSans-79"/>
      <use x="797.945312" xlink:href="#DejaVuSans-20"/>
      <use x="829.732422" xlink:href="#DejaVuSans-52"/>
      <use x="894.714844" xlink:href="#DejaVuSans-65"/>
      <use x="956.238281" xlink:href="#DejaVuSans-77"/>
      <use x="1038.025391" xlink:href="#DejaVuSans-61"/>
      <use x="1099.304688" xlink:href="#DejaVuSans-72"/>
      <use x="1138.667969" xlink:href="#DejaVuSans-64"/>
     </g>
    </g>
   </g>
   <g id="PolyCollection_1">
    <path clip-path="url(#p7c983b9b60)" d="M 59.666286 199.866373 
L 59.666286 200.097365 
L 77.522286 242.844069 
L 95.378286 203.941067 
L 113.234286 190.375418 
L 131.090286 130.541564 
L 148.946286 175.739639 
L 166.802286 165.024159 
L 184.658286 100.1555 
L 202.514286 67.922141 
L 220.370286 68.318121 
L 238.226286 71.251418 
L 256.082286 65.836951 
L 273.938286 69.984976 
L 291.794286 68.657968 
L 309.650286 64.887735 
L 327.506286 68.105735 
L 345.362286 68.204283 
L 363.218286 66.573889 
L 381.074286 66.771566 
L 398.930286 62.959078 
L 416.786286 62.562008 
L 416.786286 56.480128 
L 416.786286 56.480128 
L 398.930286 57.255258 
L 381.074286 57.271952 
L 363.218286 58.807369 
L 345.362286 60.23727 
L 327.506286 61.44282 
L 309.650286 55.600142 
L 291.794286 60.694794 
L 273.938286 64.893094 
L 256.082286 57.92908 
L 238.226286 55.337892 
L 220.370286 59.312585 
L 202.514286 58.745053 
L 184.658286 45.449405 
L 166.802286 42.000883 
L 148.946286 64.337129 
L 131.090286 90.301297 
L 113.234286 145.923077 
L 95.378286 201.056586 
L 77.522286 217.349752 
L 59.666286 199.866373 
z
" style="fill:#27b5ea;fill-opacity:0.2;"/>
   </g>
   <g id="PolyCollection_2">
    <path clip-path="url(#p7c983b9b60)" d="M 59.666286 236.470767 
L 59.666286 236.521546 
L 77.522286 247.42706 
L 95.378286 261.216 
L 113.234286 196.59429 
L 131.090286 181.766621 
L 148.946286 144.757846 
L 166.802286 112.243629 
L 184.658286 104.678439 
L 202.514286 99.902874 
L 220.370286 97.232846 
L 238.226286 93.280547 
L 256.082286 90.060606 
L 273.938286 89.528241 
L 291.794286 88.618043 
L 309.650286 89.414065 
L 327.506286 90.879237 
L 345.362286 88.239418 
L 363.218286 88.402449 
L 381.074286 86.001285 
L 398.930286 89.729879 
L 416.786286 90.160587 
L 416.786286 83.474755 
L 416.786286 83.474755 
L 398.930286 84.354537 
L 381.074286 79.153675 
L 363.218286 81.543816 
L 345.362286 81.987 
L 327.506286 84.752219 
L 309.650286 80.581818 
L 291.794286 82.367682 
L 273.938286 83.198199 
L 256.082286 85.179959 
L 238.226286 82.586784 
L 220.370286 86.901379 
L 202.514286 90.481929 
L 184.658286 96.521228 
L 166.802286 106.892023 
L 148.946286 136.029154 
L 131.090286 175.882159 
L 113.234286 189.182945 
L 95.378286 255.954522 
L 77.522286 247.306833 
L 59.666286 236.470767 
z
" style="fill:#5436da;fill-opacity:0.2;"/>
   </g>
   <g id="PolyCollection_3">
    <path clip-path="url(#p7c983b9b60)" d="M 59.666286 229.595349 
L 59.666286 229.746118 
L 77.522286 231.898863 
L 95.378286 229.564713 
L 113.234286 227.639897 
L 131.090286 225.161723 
L 148.946286 209.906395 
L 166.802286 196.093018 
L 184.658286 194.362038 
L 202.514286 203.571477 
L 220.370286 100.74662 
L 238.226286 101.004526 
L 256.082286 174.313066 
L 273.938286 99.028942 
L 291.794286 100.918627 
L 309.650286 97.829868 
L 327.506286 98.145474 
L 345.362286 97.591546 
L 363.218286 96.919391 
L 381.074286 97.194473 
L 398.930286 97.24336 
L 416.786286 97.22924 
L 416.786286 96.911883 
L 416.786286 96.911883 
L 398.930286 97.036022 
L 381.074286 96.965656 
L 363.218286 96.610182 
L 345.362286 97.348195 
L 327.506286 96.605989 
L 309.650286 97.412288 
L 291.794286 98.001497 
L 273.938286 96.583348 
L 256.082286 157.258947 
L 238.226286 98.738414 
L 220.370286 99.452969 
L 202.514286 152.38015 
L 184.658286 189.839937 
L 166.802286 195.285136 
L 148.946286 209.628885 
L 131.090286 224.463234 
L 113.234286 227.480011 
L 95.378286 229.453027 
L 77.522286 231.390833 
L 59.666286 229.595349 
z
" style="fill:#f4ac36;fill-opacity:0.2;"/>
   </g>
   <g id="PolyCollection_4">
    <path clip-path="url(#p7c983b9b60)" d="M 59.666286 236.141944 
L 59.666286 236.22146 
L 77.522286 236.614844 
L 95.378286 236.434332 
L 113.234286 231.735408 
L 131.090286 234.075308 
L 148.946286 224.776782 
L 166.802286 223.130851 
L 184.658286 227.895704 
L 202.514286 224.132062 
L 220.370286 223.048963 
L 238.226286 219.083516 
L 256.082286 223.146347 
L 273.938286 202.376688 
L 291.794286 205.046274 
L 309.650286 194.91472 
L 327.506286 168.966914 
L 345.362286 158.99094 
L 363.218286 134.874367 
L 381.074286 122.946728 
L 398.930286 152.39443 
L 416.786286 108.784397 
L 416.786286 19.296 
L 416.786286 19.296 
L 398.930286 33.358204 
L 381.074286 61.726448 
L 363.218286 54.889775 
L 345.362286 92.748548 
L 327.506286 109.112162 
L 309.650286 90.132367 
L 291.794286 178.23901 
L 273.938286 194.128504 
L 256.082286 140.07545 
L 238.226286 209.660248 
L 220.370286 222.899539 
L 202.514286 222.128759 
L 184.658286 223.135035 
L 166.802286 212.197946 
L 148.946286 223.919256 
L 131.090286 233.26558 
L 113.234286 227.876714 
L 95.378286 236.423923 
L 77.522286 236.607063 
L 59.666286 236.141944 
z
" style="fill:#68de7a;fill-opacity:0.2;"/>
   </g>
   <g id="line2d_27">
    <path clip-path="url(#p7c983b9b60)" d="M 59.666286 58.965491 
L 416.786286 58.965491 
" style="fill:none;stroke:#27b5ea;stroke-dasharray:5.55,2.4;stroke-dashoffset:0;stroke-opacity:0.7;stroke-width:1.5;"/>
   </g>
   <g id="line2d_28">
    <path clip-path="url(#p7c983b9b60)" d="M 59.666286 199.981869 
L 77.522286 230.09691 
L 95.378286 202.498827 
L 113.234286 168.149248 
L 131.090286 110.42143 
L 148.946286 120.038384 
L 166.802286 103.512521 
L 184.658286 72.802452 
L 202.514286 63.333597 
L 220.370286 63.815353 
L 238.226286 63.294655 
L 256.082286 61.883015 
L 273.938286 67.439035 
L 291.794286 64.676381 
L 309.650286 60.243938 
L 327.506286 64.774277 
L 345.362286 64.220776 
L 363.218286 62.690629 
L 381.074286 62.021759 
L 398.930286 60.107168 
L 416.786286 59.521068 
" style="fill:none;stroke:#27b5ea;stroke-linecap:square;stroke-width:0.7;"/>
   </g>
   <g id="line2d_29">
    <path clip-path="url(#p7c983b9b60)" d="M 59.666286 81.936967 
L 416.786286 81.936967 
" style="fill:none;stroke:#5436da;stroke-dasharray:5.55,2.4;stroke-dashoffset:0;stroke-opacity:0.5;stroke-width:1.5;"/>
   </g>
   <g id="line2d_30">
    <path clip-path="url(#p7c983b9b60)" d="M 59.666286 236.496156 
L 77.522286 247.366946 
L 95.378286 258.585261 
L 113.234286 192.888617 
L 131.090286 178.82439 
L 148.946286 140.3935 
L 166.802286 109.567826 
L 184.658286 100.599833 
L 202.514286 95.192402 
L 220.370286 92.067112 
L 238.226286 87.933666 
L 256.082286 87.620283 
L 273.938286 86.36322 
L 291.794286 85.492862 
L 309.650286 84.997941 
L 327.506286 87.815728 
L 345.362286 85.113209 
L 363.218286 84.973133 
L 381.074286 82.57748 
L 398.930286 87.042208 
L 416.786286 86.817671 
" style="fill:none;stroke:#5436da;stroke-linecap:square;stroke-opacity:0.7;stroke-width:0.7;"/>
   </g>
   <g id="line2d_31">
    <path clip-path="url(#p7c983b9b60)" d="M 59.666286 96.990613 
L 416.786286 96.990613 
" style="fill:none;stroke:#f4ac36;stroke-dasharray:5.55,2.4;stroke-dashoffset:0;stroke-opacity:0.7;stroke-width:1.5;"/>
   </g>
   <g id="line2d_32">
    <path clip-path="url(#p7c983b9b60)" d="M 59.666286 229.670734 
L 77.522286 231.644848 
L 95.378286 229.50887 
L 113.234286 227.559954 
L 131.090286 224.812479 
L 148.946286 209.76764 
L 166.802286 195.689077 
L 184.658286 192.100988 
L 202.514286 177.975814 
L 220.370286 100.099794 
L 238.226286 99.87147 
L 256.082286 165.786006 
L 273.938286 97.806145 
L 291.794286 99.460062 
L 309.650286 97.621078 
L 327.506286 97.375731 
L 345.362286 97.46987 
L 363.218286 96.764787 
L 381.074286 97.080065 
L 398.930286 97.139691 
L 416.786286 97.070561 
" style="fill:none;stroke:#f4ac36;stroke-linecap:square;stroke-width:0.7;"/>
   </g>
   <g id="line2d_33">
    <path clip-path="url(#p7c983b9b60)" d="M 59.666286 33.035118 
L 416.786286 33.035118 
" style="fill:none;stroke:#68de7a;stroke-dasharray:5.55,2.4;stroke-dashoffset:0;stroke-opacity:0.8;stroke-width:1.5;"/>
   </g>
   <g id="line2d_34">
    <path clip-path="url(#p7c983b9b60)" d="M 59.666286 236.181702 
L 77.522286 236.610953 
L 95.378286 236.429128 
L 113.234286 229.806061 
L 131.090286 233.670444 
L 148.946286 224.348019 
L 166.802286 217.664399 
L 184.658286 225.51537 
L 202.514286 223.130411 
L 220.370286 222.974251 
L 238.226286 214.371882 
L 256.082286 181.610899 
L 273.938286 198.252596 
L 291.794286 191.642642 
L 309.650286 142.523543 
L 327.506286 139.039538 
L 345.362286 125.869744 
L 363.218286 94.882071 
L 381.074286 92.336588 
L 398.930286 92.876317 
L 416.786286 64.040198 
" style="fill:none;stroke:#68de7a;stroke-linecap:square;stroke-width:0.7;"/>
   </g>
   <g id="line2d_35"/>
   <g id="line2d_36"/>
   <g id="line2d_37"/>
   <g id="line2d_38"/>
   <g id="patch_3">
    <path d="M 59.666286 273.312 
L 59.666286 7.2 
" style="fill:none;stroke:#c8c8d3;stroke-linecap:square;stroke-linejoin:miter;stroke-width:0.7;"/>
   </g>
   <g id="patch_4">
    <path d="M 416.786286 273.312 
L 416.786286 7.2 
" style="fill:none;stroke:#ffffff;stroke-linecap:square;stroke-linejoin:miter;"/>
   </g>
   <g id="patch_5">
    <path d="M 59.666286 273.312 
L 416.786286 273.312 
" style="fill:none;stroke:#c8c8d3;stroke-linecap:square;stroke-linejoin:miter;stroke-width:0.7;"/>
   </g>
   <g id="patch_6">
    <path d="M 59.666286 7.2 
L 416.786286 7.2 
" style="fill:none;stroke:#ffffff;stroke-linecap:square;stroke-linejoin:miter;"/>
   </g>
   <g id="legend_1">
    <g id="patch_7">
     <path d="M 89.684098 333.245805 
L 386.768473 333.245805 
Q 388.768473 333.245805 388.768473 331.245805 
L 388.768473 317.56768 
Q 388.768473 315.56768 386.768473 315.56768 
L 89.684098 315.56768 
Q 87.684098 315.56768 87.684098 317.56768 
L 87.684098 331.245805 
Q 87.684098 333.245805 89.684098 333.245805 
z
" style="fill:none;opacity:0;"/>
    </g>
    <g id="line2d_39">
     <path d="M 91.684098 323.666117 
L 111.684098 323.666117 
" style="fill:none;"/>
    </g>
    <g id="line2d_40">
     <defs>
      <path d="M 0 3 
C 0.795609 3 1.55874 2.683901 2.12132 2.12132 
C 2.683901 1.55874 3 0.795609 3 0 
C 3 -0.795609 2.683901 -1.55874 2.12132 -2.12132 
C 1.55874 -2.683901 0.795609 -3 0 -3 
C -0.795609 -3 -1.55874 -2.683901 -2.12132 -2.12132 
C -2.683901 -1.55874 -3 -0.795609 -3 0 
C -3 0.795609 -2.683901 1.55874 -2.12132 2.12132 
C -1.55874 2.683901 -0.795609 3 0 3 
z
" id="m38688039b4" style="stroke:#27b5ea;"/>
     </defs>
     <g>
      <use style="fill:#27b5ea;stroke:#27b5ea;" x="101.684098" xlink:href="#m38688039b4" y="323.666117"/>
     </g>
    </g>
    <g id="text_16">
     <!-- Ant -->
     <g style="fill:#6e6e80;" transform="translate(111.784098 327.166117)scale(0.1 -0.1)">
      <defs>
       <path d="M 2188 4044 
L 1331 1722 
L 3047 1722 
L 2188 4044 
z
M 1831 4666 
L 2547 4666 
L 4325 0 
L 3669 0 
L 3244 1197 
L 1141 1197 
L 716 0 
L 50 0 
L 1831 4666 
z
" id="DejaVuSans-41" transform="scale(0.015625)"/>
      </defs>
      <use xlink:href="#DejaVuSans-41"/>
      <use x="68.408203" xlink:href="#DejaVuSans-6e"/>
      <use x="131.787109" xlink:href="#DejaVuSans-74"/>
     </g>
    </g>
    <g id="line2d_41">
     <path d="M 148.882536 323.666117 
L 168.882536 323.666117 
" style="fill:none;"/>
    </g>
    <g id="line2d_42">
     <defs>
      <path d="M 0 3 
C 0.795609 3 1.55874 2.683901 2.12132 2.12132 
C 2.683901 1.55874 3 0.795609 3 0 
C 3 -0.795609 2.683901 -1.55874 2.12132 -2.12132 
C 1.55874 -2.683901 0.795609 -3 0 -3 
C -0.795609 -3 -1.55874 -2.683901 -2.12132 -2.12132 
C -2.683901 -1.55874 -3 -0.795609 -3 0 
C -3 0.795609 -2.683901 1.55874 -2.12132 2.12132 
C -1.55874 2.683901 -0.795609 3 0 3 
z
" id="m02a33c6b26" style="stroke:#5436da;stroke-opacity:0.7;"/>
     </defs>
     <g>
      <use style="fill:#5436da;fill-opacity:0.7;stroke:#5436da;stroke-opacity:0.7;" x="158.882536" xlink:href="#m02a33c6b26" y="323.666117"/>
     </g>
    </g>
    <g id="text_17">
     <!-- Half Cheetah -->
     <g style="fill:#6e6e80;" transform="translate(168.982536 327.166117)scale(0.1 -0.1)">
      <defs>
       <path d="M 628 4666 
L 1259 4666 
L 1259 2753 
L 3553 2753 
L 3553 4666 
L 4184 4666 
L 4184 0 
L 3553 0 
L 3553 2222 
L 1259 2222 
L 1259 0 
L 628 0 
L 628 4666 
z
" id="DejaVuSans-48" transform="scale(0.015625)"/>
       <path d="M 603 4863 
L 1178 4863 
L 1178 0 
L 603 0 
L 603 4863 
z
" id="DejaVuSans-6c" transform="scale(0.015625)"/>
       <path d="M 2375 4863 
L 2375 4384 
L 1825 4384 
Q 1516 4384 1395 4259 
Q 1275 4134 1275 3809 
L 1275 3500 
L 2222 3500 
L 2222 3053 
L 1275 3053 
L 1275 0 
L 697 0 
L 697 3053 
L 147 3053 
L 147 3500 
L 697 3500 
L 697 3744 
Q 697 4328 969 4595 
Q 1241 4863 1831 4863 
L 2375 4863 
z
" id="DejaVuSans-66" transform="scale(0.015625)"/>
       <path d="M 4122 4306 
L 4122 3641 
Q 3803 3938 3442 4084 
Q 3081 4231 2675 4231 
Q 1875 4231 1450 3742 
Q 1025 3253 1025 2328 
Q 1025 1406 1450 917 
Q 1875 428 2675 428 
Q 3081 428 3442 575 
Q 3803 722 4122 1019 
L 4122 359 
Q 3791 134 3420 21 
Q 3050 -91 2638 -91 
Q 1578 -91 968 557 
Q 359 1206 359 2328 
Q 359 3453 968 4101 
Q 1578 4750 2638 4750 
Q 3056 4750 3426 4639 
Q 3797 4528 4122 4306 
z
" id="DejaVuSans-43" transform="scale(0.015625)"/>
       <path d="M 3513 2113 
L 3513 0 
L 2938 0 
L 2938 2094 
Q 2938 2591 2744 2837 
Q 2550 3084 2163 3084 
Q 1697 3084 1428 2787 
Q 1159 2491 1159 1978 
L 1159 0 
L 581 0 
L 581 4863 
L 1159 4863 
L 1159 2956 
Q 1366 3272 1645 3428 
Q 1925 3584 2291 3584 
Q 2894 3584 3203 3211 
Q 3513 2838 3513 2113 
z
" id="DejaVuSans-68" transform="scale(0.015625)"/>
      </defs>
      <use xlink:href="#DejaVuSans-48"/>
      <use x="75.195312" xlink:href="#DejaVuSans-61"/>
      <use x="136.474609" xlink:href="#DejaVuSans-6c"/>
      <use x="164.257812" xlink:href="#DejaVuSans-66"/>
      <use x="199.462891" xlink:href="#DejaVuSans-20"/>
      <use x="231.25" xlink:href="#DejaVuSans-43"/>
      <use x="301.074219" xlink:href="#DejaVuSans-68"/>
      <use x="364.453125" xlink:href="#DejaVuSans-65"/>
      <use x="425.976562" xlink:href="#DejaVuSans-65"/>
      <use x="487.5" xlink:href="#DejaVuSans-74"/>
      <use x="526.708984" xlink:href="#DejaVuSans-61"/>
      <use x="587.988281" xlink:href="#DejaVuSans-68"/>
     </g>
    </g>
    <g id="line2d_43">
     <path d="M 254.120036 323.666117 
L 274.120036 323.666117 
" style="fill:none;"/>
    </g>
    <g id="line2d_44">
     <defs>
      <path d="M 0 3 
C 0.795609 3 1.55874 2.683901 2.12132 2.12132 
C 2.683901 1.55874 3 0.795609 3 0 
C 3 -0.795609 2.683901 -1.55874 2.12132 -2.12132 
C 1.55874 -2.683901 0.795609 -3 0 -3 
C -0.795609 -3 -1.55874 -2.683901 -2.12132 -2.12132 
C -2.683901 -1.55874 -3 -0.795609 -3 0 
C -3 0.795609 -2.683901 1.55874 -2.12132 2.12132 
C -1.55874 2.683901 -0.795609 3 0 3 
z
" id="m887697f7b3" style="stroke:#f4ac36;"/>
     </defs>
     <g>
      <use style="fill:#f4ac36;stroke:#f4ac36;" x="264.120036" xlink:href="#m887697f7b3" y="323.666117"/>
     </g>
    </g>
    <g id="text_18">
     <!-- Hopper -->
     <g style="fill:#6e6e80;" transform="translate(274.220036 327.166117)scale(0.1 -0.1)">
      <defs>
       <path d="M 1159 525 
L 1159 -1331 
L 581 -1331 
L 581 3500 
L 1159 3500 
L 1159 2969 
Q 1341 3281 1617 3432 
Q 1894 3584 2278 3584 
Q 2916 3584 3314 3078 
Q 3713 2572 3713 1747 
Q 3713 922 3314 415 
Q 2916 -91 2278 -91 
Q 1894 -91 1617 61 
Q 1341 213 1159 525 
z
M 3116 1747 
Q 3116 2381 2855 2742 
Q 2594 3103 2138 3103 
Q 1681 3103 1420 2742 
Q 1159 2381 1159 1747 
Q 1159 1113 1420 752 
Q 1681 391 2138 391 
Q 2594 391 2855 752 
Q 3116 1113 3116 1747 
z
" id="DejaVuSans-70" transform="scale(0.015625)"/>
      </defs>
      <use xlink:href="#DejaVuSans-48"/>
      <use x="75.195312" xlink:href="#DejaVuSans-6f"/>
      <use x="136.376953" xlink:href="#DejaVuSans-70"/>
      <use x="199.853516" xlink:href="#DejaVuSans-70"/>
      <use x="263.330078" xlink:href="#DejaVuSans-65"/>
      <use x="324.853516" xlink:href="#DejaVuSans-72"/>
     </g>
    </g>
    <g id="line2d_45">
     <path d="M 330.820036 323.666117 
L 350.820036 323.666117 
" style="fill:none;"/>
    </g>
    <g id="line2d_46">
     <defs>
      <path d="M 0 3 
C 0.795609 3 1.55874 2.683901 2.12132 2.12132 
C 2.683901 1.55874 3 0.795609 3 0 
C 3 -0.795609 2.683901 -1.55874 2.12132 -2.12132 
C 1.55874 -2.683901 0.795609 -3 0 -3 
C -0.795609 -3 -1.55874 -2.683901 -2.12132 -2.12132 
C -2.683901 -1.55874 -3 -0.795609 -3 0 
C -3 0.795609 -2.683901 1.55874 -2.12132 2.12132 
C -1.55874 2.683901 -0.795609 3 0 3 
z
" id="m3a13249604" style="stroke:#68de7a;"/>
     </defs>
     <g>
      <use style="fill:#68de7a;stroke:#68de7a;" x="340.820036" xlink:href="#m3a13249604" y="323.666117"/>
     </g>
    </g>
    <g id="text_19">
     <!-- Walker -->
     <g style="fill:#6e6e80;" transform="translate(350.920036 327.166117)scale(0.1 -0.1)">
      <defs>
       <path d="M 213 4666 
L 850 4666 
L 1831 722 
L 2809 4666 
L 3519 4666 
L 4500 722 
L 5478 4666 
L 6119 4666 
L 4947 0 
L 4153 0 
L 3169 4050 
L 2175 0 
L 1381 0 
L 213 4666 
z
" id="DejaVuSans-57" transform="scale(0.015625)"/>
       <path d="M 581 4863 
L 1159 4863 
L 1159 1991 
L 2875 3500 
L 3609 3500 
L 1753 1863 
L 3688 0 
L 2938 0 
L 1159 1709 
L 1159 0 
L 581 0 
L 581 4863 
z
" id="DejaVuSans-6b" transform="scale(0.015625)"/>
      </defs>
      <use xlink:href="#DejaVuSans-57"/>
      <use x="92.501953" xlink:href="#DejaVuSans-61"/>
      <use x="153.78125" xlink:href="#DejaVuSans-6c"/>
      <use x="181.564453" xlink:href="#DejaVuSans-6b"/>
      <use x="235.849609" xlink:href="#DejaVuSans-65"/>
      <use x="297.373047" xlink:href="#DejaVuSans-72"/>
     </g>
    </g>
   </g>
  </g>
 </g>
 <defs>
  <clipPath id="p7c983b9b60">
   <rect height="266.112" width="357.12" x="59.666286" y="7.2"/>
  </clipPath>
 </defs>
</svg>
